<svg width="650" height="650" viewBox="0 0 650 650" fill="none" xmlns="http://www.w3.org/2000/svg">
<path d="M487.308 513.254C487.316 520.898 481.915 528.467 471.414 535.53C460.912 542.592 445.516 549.01 426.104 554.416C406.693 559.822 383.646 564.11 358.28 567.035C332.915 569.961 305.727 571.467 278.271 571.467C250.815 571.467 223.628 569.961 198.262 567.035C172.897 564.11 149.85 559.822 130.438 554.416C111.027 549.01 95.6303 542.592 85.1288 535.53C74.6273 528.467 69.2262 520.898 69.2342 513.254C69.2262 505.61 74.6273 498.041 85.1288 490.978C95.6303 483.916 111.027 477.498 130.438 472.092C149.85 466.687 172.897 462.398 198.262 459.473C223.628 456.547 250.815 455.041 278.271 455.041C305.727 455.041 332.915 456.547 358.28 459.473C383.646 462.398 406.693 466.687 426.104 472.092C445.516 477.498 460.912 483.916 471.414 490.978C481.915 498.041 487.316 505.61 487.308 513.254Z" fill="url(#paint0_linear_67_59)"/>
<path d="M362.846 463.088C362.846 464.093 357.092 465.057 346.849 465.767C336.607 466.478 322.715 466.877 308.229 466.877C293.744 466.877 279.852 466.478 269.61 465.767C259.367 465.057 253.613 464.093 253.613 463.088C253.613 462.083 259.367 461.119 269.61 460.409C279.852 459.698 293.744 459.299 308.229 459.299C322.715 459.299 336.607 459.698 346.849 460.409C357.092 461.119 362.846 462.083 362.846 463.088Z" fill="white"/>
<path d="M487.289 109.429C487.289 113.457 481.882 117.445 471.377 121.166C460.871 124.886 445.473 128.267 426.061 131.115C406.65 133.963 383.605 136.222 358.242 137.763C332.879 139.305 305.696 140.098 278.244 140.098C250.791 140.098 223.608 139.305 198.245 137.763C172.883 136.222 149.838 133.963 130.426 131.115C111.014 128.267 95.6161 124.886 85.1105 121.166C74.605 117.445 69.1979 113.457 69.1979 109.429C69.1979 105.402 74.605 101.414 85.1105 97.6928C95.6161 93.9719 111.014 90.591 130.426 87.7432C149.838 84.8953 172.883 82.6362 198.245 81.0949C223.608 79.5537 250.791 78.7604 278.244 78.7604C305.696 78.7604 332.879 79.5537 358.242 81.0949C383.605 82.6362 406.65 84.8953 426.061 87.7432C445.473 90.591 460.871 93.9719 471.377 97.6928C481.882 101.414 487.289 105.402 487.289 109.429Z" fill="url(#paint1_linear_67_59)"/>
<path d="M325.384 216.094C324.972 215.094 615.695 77.8294 593.248 284.271C571.954 480.12 282.052 436.796 282.052 436.796" stroke="#16A08F" stroke-width="53.6183"/>
<path d="M487.289 109.191H69.1979V512.345H487.289V109.191Z" fill="url(#paint2_linear_67_59)"/>
<path d="M260.766 223.902H174.317V355H260.766V223.902Z" fill="#ACE6DF" stroke="#ACE6DF" stroke-width="16.2551" stroke-linecap="round" stroke-linejoin="round"/>
<path d="M216.637 79.8466L217.505 217.574Z" fill="#ACE6DF"/>
<path d="M216.637 79.8466L217.505 217.574" stroke="#ACE6DF" stroke-width="10.8244"/>
<defs>
<linearGradient id="paint0_linear_67_59" x1="69.2342" y1="513.254" x2="487.308" y2="513.254" gradientUnits="userSpaceOnUse">
<stop stop-color="#1ABC9F"/>
<stop offset="0.65" stop-color="#16A08F"/>
<stop offset="1" stop-color="#16A08F"/>
</linearGradient>
<linearGradient id="paint1_linear_67_59" x1="69.1978" y1="109.429" x2="487.289" y2="109.429" gradientUnits="userSpaceOnUse">
<stop stop-color="#1ABC9F"/>
<stop offset="0.65" stop-color="#16A08F"/>
<stop offset="1" stop-color="#16A08F"/>
</linearGradient>
<linearGradient id="paint2_linear_67_59" x1="69.1978" y1="310.768" x2="487.289" y2="310.768" gradientUnits="userSpaceOnUse">
<stop stop-color="#1ABC9F"/>
<stop offset="0.65" stop-color="#16A08F"/>
<stop offset="1" stop-color="#16A08F"/>
</linearGradient>
</defs>
</svg>
