<svg width="650" height="650" viewBox="0 0 650 650" fill="none" xmlns="http://www.w3.org/2000/svg">
<path d="M488.664 532.609C488.672 541.064 483.213 549.437 472.597 557.249C461.982 565.061 446.419 572.16 426.798 578.139C407.176 584.119 383.88 588.862 358.24 592.098C332.6 595.334 305.118 597 277.365 597C249.611 597 222.13 595.334 196.49 592.098C170.85 588.862 147.554 584.119 127.932 578.139C108.31 572.16 92.7474 565.061 82.1322 557.249C71.5171 549.437 66.0576 541.064 66.0657 532.609C66.0576 524.154 71.5171 515.781 82.1322 507.969C92.7474 500.156 108.31 493.058 127.932 487.078C147.554 481.099 170.85 476.355 196.49 473.119C222.13 469.883 249.611 468.217 277.365 468.217C305.118 468.217 332.6 469.883 358.24 473.119C383.88 476.355 407.176 481.099 426.798 487.078C446.419 493.058 461.982 500.156 472.597 507.969C483.213 515.781 488.672 524.154 488.664 532.609Z" fill="url(#paint0_linear_67_59)"/>
<path d="M362.855 477.118C362.855 478.23 357.039 479.296 346.685 480.082C336.332 480.868 322.289 481.309 307.647 481.309C293.005 481.309 278.963 480.868 268.609 480.082C258.256 479.296 252.439 478.23 252.439 477.118C252.439 476.006 258.256 474.94 268.609 474.154C278.963 473.368 293.005 472.927 307.647 472.927C322.289 472.927 336.332 473.368 346.685 474.154C357.039 474.94 362.855 476.006 362.855 477.118Z" fill="white"/>
<path d="M488.645 85.9238C488.645 90.3787 483.179 94.79 472.56 98.9058C461.941 103.022 446.376 106.761 426.754 109.911C407.133 113.062 383.838 115.561 358.201 117.265C332.564 118.97 305.086 119.848 277.337 119.848C249.588 119.848 222.11 118.97 196.473 117.265C170.836 115.561 147.541 113.062 127.92 109.911C108.298 106.761 92.733 103.022 82.1138 98.9058C71.4946 94.79 66.0289 90.3787 66.0289 85.9238C66.0289 81.4689 71.4946 77.0576 82.1138 72.9418C92.733 68.826 108.298 65.0862 127.92 61.9361C147.541 58.786 170.836 56.2871 196.473 54.5823C222.11 52.8774 249.588 52 277.337 52C305.086 52 332.564 52.8774 358.201 54.5823C383.838 56.2871 407.133 58.786 426.754 61.9361C446.376 65.0862 461.941 68.826 472.56 72.9418C483.179 77.0576 488.645 81.4689 488.645 85.9238Z" fill="url(#paint1_linear_67_59)"/>
<path d="M324.988 203.909C324.571 202.803 618.44 50.9701 595.751 279.322C574.226 495.958 281.186 448.036 281.186 448.036" stroke="#16A08F" stroke-width="53.6183"/>
<path d="M488.645 85.6602H66.0289V531.604H488.645V85.6602Z" fill="url(#paint2_linear_67_59)"/>
<path d="M259.67 212.546H172.285V357.558H259.67V212.546Z" fill="#ACE6DF" stroke="#ACE6DF" stroke-width="16.2551" stroke-linecap="round" stroke-linejoin="round"/>
<path d="M215.064 53.2014L215.941 205.546Z" fill="#ACE6DF"/>
<path d="M215.064 53.2014L215.941 205.546" stroke="#ACE6DF" stroke-width="10.8244"/>
<defs>
<linearGradient id="paint0_linear_67_59" x1="66.0656" y1="532.609" x2="488.664" y2="532.609" gradientUnits="userSpaceOnUse">
<stop stop-color="#1ABC9F"/>
<stop offset="0.65" stop-color="#16A08F"/>
<stop offset="1" stop-color="#16A08F"/>
</linearGradient>
<linearGradient id="paint1_linear_67_59" x1="66.0289" y1="85.9238" x2="488.645" y2="85.9238" gradientUnits="userSpaceOnUse">
<stop stop-color="#1ABC9F"/>
<stop offset="0.65" stop-color="#16A08F"/>
<stop offset="1" stop-color="#16A08F"/>
</linearGradient>
<linearGradient id="paint2_linear_67_59" x1="66.0289" y1="308.632" x2="488.645" y2="308.632" gradientUnits="userSpaceOnUse">
<stop stop-color="#1ABC9F"/>
<stop offset="0.65" stop-color="#16A08F"/>
<stop offset="1" stop-color="#16A08F"/>
</linearGradient>
</defs>
</svg>
