<?xml version="1.0" encoding="UTF-8" standalone="no"?>
<!DOCTYPE svg PUBLIC "-//W3C//DTD SVG 1.1//EN" "http://www.w3.org/Graphics/SVG/1.1/DTD/svg11.dtd">
<svg width="100%" height="100%" viewBox="0 0 640 640" version="1.1" xmlns="http://www.w3.org/2000/svg" xmlns:xlink="http://www.w3.org/1999/xlink" xml:space="preserve" xmlns:serif="http://www.serif.com/" style="fill-rule:evenodd;clip-rule:evenodd;">
    <g>
        <path d="M319.927,213.375C319.51,212.27 613.81,60.646 591.088,288.684C569.531,505.022 276.061,457.166 276.061,457.166" style="fill:none;fill-rule:nonzero;stroke:black;stroke-width:53.62px;"/>
        <path d="M216.07,215.009L216.07,64.964C284.415,62.306 352.949,64.504 421.009,71.557C434.918,72.998 453.366,78.048 466.628,82.246C472.474,84.097 483.42,86.993 483.82,95.288L483.825,95.288L483.825,540.619L483.819,540.619C483.837,540.959 483.844,541.639 483.844,541.639C483.844,560.339 463.364,569.742 448.856,576.109C442.577,578.865 436.319,581.692 429.886,584.068C423.454,586.444 416.933,588.615 410.3,590.353C337.944,609.313 261.042,612.234 186.955,600.913L185.197,600.641C184.062,600.464 182.927,600.284 181.791,600.1L179.964,599.801C178.85,599.617 177.737,599.429 176.625,599.239L174.768,598.917L173.067,598.618L171.41,598.321L169.603,597.991L167.856,597.667C166.802,597.47 165.749,597.27 164.697,597.067L162.693,596.677L161.044,596.35L159.354,596.01L157.566,595.645L155.86,595.291L154.262,594.954L152.466,594.571L150.728,594.193C150.213,594.081 149.7,593.968 149.188,593.855C140.346,591.897 131.57,589.611 122.897,587.005C105.819,581.874 87.506,576.322 73.841,564.123C67.407,558.379 60.625,550.902 60.625,541.639L60.625,541.601C60.625,541.274 60.633,540.946 60.65,540.619L60.588,540.619L60.588,95.288L60.596,95.288C60.996,86.993 71.941,84.097 77.788,82.246C91.05,78.048 109.498,72.998 123.407,71.557C150.299,68.77 177.265,66.741 204.277,65.47L204.277,215.009L171.348,215.009C162.906,215.009 156.051,221.864 156.051,230.306L156.051,360.608C156.051,369.051 162.906,375.905 171.348,375.905L242.733,375.905C251.176,375.905 258.03,369.051 258.03,360.608L258.03,230.306C258.03,221.864 251.176,215.009 242.733,215.009L216.07,215.009Z" style="fill:url(#_Linear1);fill-rule:nonzero;"/>
    </g>
    <defs>
        <linearGradient id="_Linear1" x1="0" y1="0" x2="1" y2="0" gradientUnits="userSpaceOnUse" gradientTransform="matrix(235.769,0,0,235.769,327.845,587.439)"><stop offset="0" style="stop-color:black;stop-opacity:1"/><stop offset="1" style="stop-color:black;stop-opacity:1"/></linearGradient>
    </defs>
</svg>
