<?xml version="1.0" encoding="UTF-8" standalone="no"?>
<svg
   xmlns:dc="http://purl.org/dc/elements/1.1/"
   xmlns:cc="http://creativecommons.org/ns#"
   xmlns:rdf="http://www.w3.org/1999/02/22-rdf-syntax-ns#"
   xmlns:svg="http://www.w3.org/2000/svg"
   xmlns="http://www.w3.org/2000/svg"
   xmlns:sodipodi="http://sodipodi.sourceforge.net/DTD/sodipodi-0.dtd"
   xmlns:inkscape="http://www.inkscape.org/namespaces/inkscape"
   width="571.70782"
   height="583.68719"
   viewBox="0 0 571.70782 583.68719"
   version="1.1"
   xml:space="preserve"
   style="clip-rule:evenodd;fill-rule:evenodd"
   id="svg78"
   sodipodi:docname="cup0.svg"
   inkscape:version="1.0.2 (e86c8708, 2021-01-15)"><metadata
   id="metadata82"><rdf:RDF><cc:Work
       rdf:about=""><dc:format>image/svg+xml</dc:format><dc:type
         rdf:resource="http://purl.org/dc/dcmitype/StillImage" /><dc:title></dc:title></cc:Work></rdf:RDF></metadata><sodipodi:namedview
   pagecolor="#ffffff"
   bordercolor="#666666"
   borderopacity="1"
   objecttolerance="10"
   gridtolerance="10"
   guidetolerance="10"
   inkscape:pageopacity="0"
   inkscape:pageshadow="2"
   inkscape:window-width="1440"
   inkscape:window-height="847"
   id="namedview80"
   showgrid="true"
   inkscape:zoom="0.9984375"
   inkscape:cx="329.69567"
   inkscape:cy="284.13984"
   inkscape:window-x="0"
   inkscape:window-y="25"
   inkscape:window-maximized="1"
   inkscape:current-layer="g69"
   inkscape:document-rotation="0"><inkscape:grid
     type="xygrid"
     id="grid1559"
     dotted="false"
     units="px"
     spacingx="150"
     spacingy="116" /></sodipodi:namedview>
    <g
   id="g69"
   transform="translate(-40.587891,-43.872683)">
        <path
   id="path65"
   style="fill:none;fill-rule:nonzero;stroke:#000000;stroke-width:40;stroke-miterlimit:4;stroke-dasharray:none"
   d="m 267.35352,63.880859 c -17.09952,0.05752 -34.19696,0.419485 -51.28321,1.083985 V 215.00977 h 26.66211 c 8.443,0 15.29688,6.85487 15.29688,15.29687 v 130.30078 c 0,8.443 -6.85388,15.29688 -15.29688,15.29688 h -71.38476 c -8.442,0 -15.29688,-6.85388 -15.29688,-15.29688 V 230.30664 c 0,-8.442 6.85488,-15.29687 15.29688,-15.29687 h 32.92968 V 65.470703 c -27.012,1.271 -53.97909,3.298938 -80.87109,6.085938 -13.909,1.441 -32.357141,6.491453 -45.619141,10.689453 -5.847,1.851 -16.791406,4.746015 -17.191406,13.041015 h -0.0078 V 540.61914 h 0.0625 c -0.017,0.327 -0.02539,0.65542 -0.02539,0.98242 v 0.0371 c 0,9.263 6.782797,16.74038 13.216797,22.48438 13.665,12.199 31.97668,17.75181 49.05468,22.88281 8.673,2.606 17.44902,4.89161 26.29102,6.84961 0.512,0.113 1.02602,0.22589 1.54102,0.33789 l 1.73828,0.37695 1.79492,0.38281 1.59766,0.3379 1.70703,0.35351 1.78711,0.36524 1.6914,0.33984 1.64844,0.32812 2.00391,0.38868 c 1.052,0.203 2.1042,0.40456 3.1582,0.60156 l 1.74805,0.32226 1.80664,0.33008 1.65625,0.29688 1.70117,0.30078 1.85742,0.32031 c 1.112,0.19 2.22584,0.3785 3.33984,0.5625 l 1.82618,0.29883 c 1.136,0.184 2.27125,0.36402 3.40625,0.54101 l 1.75781,0.27149 c 74.087,11.321 150.9897,8.40141 223.3457,-10.55859 6.633,-1.738 13.15394,-3.90916 19.58594,-6.28516 6.433,-2.376 12.68975,-5.20299 18.96875,-7.95898 14.508,-6.36701 34.98828,-15.77071 34.98828,-34.47071 0,0 -0.007,-0.67953 -0.0254,-1.01953 h 0.006 v -104.375 C 537.74178,412.76076 583.09718,368.87538 591.08789,288.68359 601.37238,185.46845 546.70951,160.03569 483.82422,163.21875 V 95.287109 h -0.004 c -0.4,-8.295 -11.3454,-11.190015 -17.1914,-13.041015 -13.262,-4.198 -31.71014,-9.248453 -45.61914,-10.689453 -51.045,-5.28975 -102.35771,-7.848329 -153.65625,-7.675782 z"
   inkscape:export-filename="/Users/sanidhya/repos/breaktimer-app/resources/tray/tray-IconTemplate@2x.png"
   inkscape:export-xdpi="5.3361287"
   inkscape:export-ydpi="5.3361287" />
        
    </g>
    <defs
   id="defs76" />
</svg>
