<svg width="573" height="545" viewBox="0 0 573 545" fill="none" xmlns="http://www.w3.org/2000/svg">
<path d="M437.306 479.948C437.314 488.392 431.846 496.753 421.216 504.555C410.585 512.356 394.999 519.445 375.349 525.416C355.698 531.388 332.368 536.124 306.69 539.356C281.012 542.588 253.49 544.251 225.696 544.251C197.902 544.251 170.38 542.588 144.702 539.356C119.025 536.124 95.6942 531.388 76.0436 525.416C56.3931 519.445 40.8073 512.356 30.1766 504.555C19.5458 496.753 14.0783 488.392 14.0864 479.948C14.0783 471.505 19.5458 463.144 30.1766 455.342C40.8073 447.541 56.3931 440.452 76.0436 434.48C95.6942 428.509 119.025 423.772 144.702 420.541C170.38 417.309 197.902 415.646 225.696 415.646C253.49 415.646 281.012 417.309 306.69 420.541C332.368 423.772 355.698 428.509 375.349 434.48C394.999 440.452 410.585 447.541 421.216 455.342C431.846 463.144 437.314 471.505 437.306 479.948Z" fill="url(#paint0_linear_64_33)"/>
<path d="M311.312 424.534C311.312 425.644 305.487 426.709 295.118 427.493C284.75 428.278 270.687 428.719 256.023 428.719C241.36 428.719 227.297 428.278 216.928 427.493C206.559 426.709 200.734 425.644 200.734 424.534C200.734 423.424 206.559 422.359 216.928 421.574C227.297 420.789 241.36 420.349 256.023 420.349C270.687 420.349 284.75 420.789 295.118 421.574C305.487 422.359 311.312 423.424 311.312 424.534Z" fill="white"/>
<path d="M437.287 33.8772C437.287 38.326 431.813 42.7312 421.178 46.8414C410.544 50.9516 394.956 54.6861 375.305 57.8319C355.655 60.9777 332.326 63.4732 306.651 65.1757C280.976 66.8782 253.458 67.7544 225.668 67.7544C197.878 67.7544 170.36 66.8782 144.685 65.1757C119.01 63.4732 95.6818 60.9777 76.0312 57.8319C56.3806 54.6861 40.7929 50.9516 30.158 46.8414C19.5232 42.7312 14.0495 38.326 14.0495 33.8772C14.0495 29.4284 19.5232 25.0232 30.158 20.913C40.7929 16.8028 56.3806 13.0683 76.0312 9.92248C95.6818 6.77669 119.01 4.2812 144.685 2.57872C170.36 0.876229 197.878 0 225.668 0C253.458 0 280.976 0.876229 306.651 2.57872C332.326 4.2812 355.655 6.77669 375.305 9.92248C394.956 13.0683 410.544 16.8028 421.178 20.913C431.813 25.0232 437.287 29.4284 437.287 33.8772Z" fill="url(#paint1_linear_64_33)"/>
<path d="M273.389 151.7C272.972 150.596 567.272 -1.02849 544.55 227.01C522.993 443.348 229.523 395.492 229.523 395.492" stroke="#16A08F" stroke-width="53.6183"/>
<path d="M437.287 33.6139H14.0496V478.945H437.287V33.6139Z" fill="url(#paint2_linear_64_33)"/>
<path d="M207.975 160.326H120.462V305.138H207.975V160.326Z" fill="#ACE6DF" stroke="#ACE6DF" stroke-width="16.2551" stroke-linecap="round" stroke-linejoin="round"/>
<path d="M163.304 1.19974L164.182 153.335Z" fill="#ACE6DF"/>
<path d="M163.304 1.19974L164.182 153.335" stroke="#ACE6DF" stroke-width="10.8244"/>
<defs>
<linearGradient id="paint0_linear_64_33" x1="14.0864" y1="479.948" x2="437.306" y2="479.948" gradientUnits="userSpaceOnUse">
<stop stop-color="#1ABC9F"/>
<stop offset="0.65" stop-color="#16A08F"/>
<stop offset="1" stop-color="#16A08F"/>
</linearGradient>
<linearGradient id="paint1_linear_64_33" x1="14.0495" y1="33.8772" x2="437.287" y2="33.8772" gradientUnits="userSpaceOnUse">
<stop stop-color="#1ABC9F"/>
<stop offset="0.65" stop-color="#16A08F"/>
<stop offset="1" stop-color="#16A08F"/>
</linearGradient>
<linearGradient id="paint2_linear_64_33" x1="14.0495" y1="256.279" x2="437.287" y2="256.279" gradientUnits="userSpaceOnUse">
<stop stop-color="#1ABC9F"/>
<stop offset="0.65" stop-color="#16A08F"/>
<stop offset="1" stop-color="#16A08F"/>
</linearGradient>
</defs>
</svg>
